<?xml version="1.0" encoding="UTF-8" standalone="no"?>
<!-- Created with Inkscape (http://www.inkscape.org/) -->

<svg
   xmlns:dc="http://purl.org/dc/elements/1.1/"
   xmlns:cc="http://creativecommons.org/ns#"
   xmlns:rdf="http://www.w3.org/1999/02/22-rdf-syntax-ns#"
   xmlns:svg="http://www.w3.org/2000/svg"
   xmlns="http://www.w3.org/2000/svg"
   xmlns:sodipodi="http://sodipodi.sourceforge.net/DTD/sodipodi-0.dtd"
   xmlns:inkscape="http://www.inkscape.org/namespaces/inkscape"
   width="105mm"
   height="105mm"
   viewBox="0 0 105 105"
   version="1.1"
   id="svg8"
   inkscape:version="0.92.4 5da689c313, 2019-01-14"
   sodipodi:docname="favicon.svg"
   inkscape:export-filename="/home/mees/git/mees.space/public/favicon-192.png"
   inkscape:export-xdpi="46.445713"
   inkscape:export-ydpi="46.445713">
  <defs
     id="defs2" />
  <sodipodi:namedview
     id="base"
     pagecolor="#ffffff"
     bordercolor="#666666"
     borderopacity="1.0"
     inkscape:pageopacity="0.0"
     inkscape:pageshadow="2"
     inkscape:zoom="1.979899"
     inkscape:cx="317.36621"
     inkscape:cy="72.417844"
     inkscape:document-units="mm"
     inkscape:current-layer="layer1"
     showgrid="false"
     inkscape:lockguides="true"
     inkscape:window-width="3774"
     inkscape:window-height="2087"
     inkscape:window-x="66"
     inkscape:window-y="39"
     inkscape:window-maximized="1" />
  <metadata
     id="metadata5">
    <rdf:RDF>
      <cc:Work
         rdf:about="">
        <dc:format>image/svg+xml</dc:format>
        <dc:type
           rdf:resource="http://purl.org/dc/dcmitype/StillImage" />
        <dc:title></dc:title>
      </cc:Work>
    </rdf:RDF>
  </metadata>
  <g
     inkscape:label="Layer 1"
     inkscape:groupmode="layer"
     id="layer1"
     transform="translate(-51.21061,18.080304)">
    <rect
       style="fill:#33acb7;fill-opacity:1;stroke:none;stroke-width:7;stroke-linecap:round;stroke-linejoin:round;stroke-miterlimit:4;stroke-dasharray:none;stroke-opacity:1"
       id="rect1162"
       width="104.99999"
       height="105.00001"
       x="51.210606"
       y="-18.080305"
       rx="24.565435" />
    <path
       style="color:#000000;font-style:normal;font-variant:normal;font-weight:normal;font-stretch:normal;font-size:medium;line-height:normal;font-family:sans-serif;font-variant-ligatures:normal;font-variant-position:normal;font-variant-caps:normal;font-variant-numeric:normal;font-variant-alternates:normal;font-feature-settings:normal;text-indent:0;text-align:start;text-decoration:none;text-decoration-line:none;text-decoration-style:solid;text-decoration-color:#000000;letter-spacing:normal;word-spacing:normal;text-transform:none;writing-mode:lr-tb;direction:ltr;text-orientation:mixed;dominant-baseline:auto;baseline-shift:baseline;text-anchor:start;white-space:normal;shape-padding:0;clip-rule:nonzero;display:inline;overflow:visible;visibility:visible;opacity:1;isolation:auto;mix-blend-mode:normal;color-interpolation:sRGB;color-interpolation-filters:linearRGB;solid-color:#000000;solid-opacity:1;vector-effect:none;fill:#f3eeb0;fill-opacity:1;fill-rule:nonzero;stroke:none;stroke-width:5;stroke-linecap:butt;stroke-linejoin:miter;stroke-miterlimit:0;stroke-dasharray:none;stroke-dashoffset:0;stroke-opacity:1;color-rendering:auto;image-rendering:auto;shape-rendering:auto;text-rendering:auto;enable-background:accumulate"
       d="m 74.476876,16.175341 c -4.956,0 -8.830402,4.282156 -8.830402,9.231216 v 35.2781 c 0,4.949061 3.874402,9.228901 8.830402,9.228901 h 58.468374 c 4.956,0 8.83041,-4.279842 8.83041,-9.228901 v -35.2781 c 0,-4.949058 -3.87441,-9.231216 -8.83041,-9.231216 h -20.75662 c 0,0 -1.72195,-0.0024 -1.72195,1.675637 v 2.990872 c 0,0 0.0895,1.603035 1.97486,1.603035 h 20.50371 c 1.35529,0 2.56086,1.157022 2.56086,2.961672 v 35.2781 c 0,1.804651 -1.20557,2.959819 -2.56086,2.959819 H 74.476876 c -1.35528,0 -2.561322,-1.155171 -2.561322,-2.959819 v -35.2781 c 0,-1.804648 1.206089,-2.950394 2.561322,-2.961672 l 21.573965,-0.179532 c 1.406339,0 1.496104,-1.273893 1.496104,-1.273893 v -3.40978 c 0,0 0.09589,-1.376416 -1.609672,-1.406339 z"
       id="rect815"
       inkscape:connector-curvature="0"
       sodipodi:nodetypes="ssssssssccccssssssssccccs" />
    <circle
       style="fill:#f3eeb0;fill-opacity:1;stroke:none;stroke-width:5;stroke-linecap:round;stroke-miterlimit:0;stroke-dasharray:none;stroke-opacity:1"
       id="path841"
       cx="126.96154"
       cy="-1.893111"
       r="4.478188" />
    <circle
       style="fill:#f3eeb0;fill-opacity:1;stroke:none;stroke-width:5;stroke-linecap:round;stroke-miterlimit:0;stroke-dasharray:none;stroke-opacity:1"
       id="path841-6"
       cx="116.60471"
       cy="36.897442"
       r="6.2694631" />
    <rect
       style="fill:#f3eeb0;fill-opacity:1;stroke:none;stroke-width:5;stroke-linecap:round;stroke-miterlimit:0;stroke-dasharray:none;stroke-opacity:1"
       id="rect877"
       width="14.375484"
       height="4.478188"
       x="82.753792"
       y="34.509979"
       ry="2.239094" />
    <path
       style="fill:none;fill-opacity:1;stroke:#f3eeb0;stroke-width:5;stroke-linecap:round;stroke-miterlimit:0;stroke-dasharray:none;stroke-opacity:1"
       d="m 111.17413,49.431846 c 0,3.916486 -3.59782,7.091426 -8.03596,7.091426 -4.438131,0 -8.035951,-3.17494 -8.035951,-7.091426"
       id="path879"
       inkscape:connector-curvature="0"
       sodipodi:nodetypes="csc" />
    <path
       style="fill:#f3eeb0;fill-opacity:1;stroke:none;stroke-width:5;stroke-linecap:square;stroke-linejoin:round;stroke-miterlimit:0;stroke-dasharray:none;stroke-opacity:1"
       d="m 59.941327,34.984194 c -1.80144,0 -3.251692,1.330463 -3.251692,2.9831 v 10.155277 c 0,1.652638 1.450252,2.9831 3.251692,2.9831 h 3.006865 c 0,0 0.02455,-11.447515 -9e-6,-16.113552 0,0 -0.03261,-0.0079 -3.006856,-0.0079 z"
       id="rect903-7"
       inkscape:connector-curvature="0"
       sodipodi:nodetypes="csssccc" />
    <path
       style="fill:#f3eeb0;fill-opacity:1;stroke:none;stroke-width:5;stroke-linecap:square;stroke-linejoin:round;stroke-miterlimit:0;stroke-dasharray:none;stroke-opacity:1"
       d="m 147.47989,34.984194 c 1.80144,0 3.25169,1.330463 3.25169,2.9831 v 10.155277 c 0,1.652638 -1.45025,2.9831 -3.25169,2.9831 h -3.00687 c 0,0 -0.0245,-11.447515 1e-5,-16.113552 0,0 0.0326,-0.0079 3.00686,-0.0079 z"
       id="rect903-7-5"
       inkscape:connector-curvature="0"
       sodipodi:nodetypes="csssccc" />
    <path
       style="fill:none;stroke:#f3eeb0;stroke-width:5;stroke-linecap:round;stroke-linejoin:miter;stroke-miterlimit:4;stroke-dasharray:none;stroke-opacity:1"
       d="m 103.99068,20.017427 c 0,-6.70495 0.0934,-21.6774856 13.14155,-21.6774856"
       id="path1082"
       inkscape:connector-curvature="0"
       sodipodi:nodetypes="cc" />
  </g>
</svg>
