<svg class="icon" width="42" height="42" version="1.1" viewBox="0 0 24.5 24.5" xmlns="http://www.w3.org/2000/svg">
	<g transform="matrix(.98 0 0 .98 .245 .245)">
		<path d="m5.25-0.25c-3.0313 0-5.5 2.4687-5.5 5.5v14c0 3.0313 2.4687 5.5 5.5 5.5h14c3.0322 0 5.5-2.4688 5.5-5.5v-14c0-3.0312-2.4678-5.5-5.5-5.5zm0 1h14c2.4918 0 4.5 2.0092 4.5 4.5v14c0 2.4908-2.0082 4.5-4.5 4.5h-14c-2.4907 0-4.5-2.0093-4.5-4.5v-14c0-2.4907 2.0093-4.5 4.5-4.5z" fill="#fffff9" stroke="none"/>
		<path d="m19.25 0.25h-14c-2.761 0-5 2.239-5 5v14c0 2.761 2.239 5 5 5h14c2.762 0 5-2.239 5-5v-14c0-2.761-2.238-5-5-5z" fill="none" stroke="#33acb7"/>
		<g fill="none" stroke="#33acb7" stroke-width="1">
			<path d="M12.25 3.5C7.42 3.5 3.5 7.42 3.5 12.25c0 3.87 2.51 7.15 5.99 8.31.44.08.6-.19.6-.42 0-.21-.01-.76-.01-1.49-2.44.53-2.95-1.18-2.95-1.18-.4-1.01-.97-1.28-.97-1.28-.8-.54.06-.53.06-.53.88.06 1.34.9 1.34.9.78 1.34 2.05.95 2.55.73.08-.57.31-.95.56-1.17-1.94-.22-3.99-.97-3.99-4.33 0-.96.34-1.74.9-2.35-.09-.22-.39-1.11.09-2.32 0 0 .73-.23 2.41.9.7-.19 1.45-.29 2.19-.3.75.01 1.5.1 2.2.3 1.67-1.13 2.4-.9 2.4-.9.48 1.21.18 2.1.09 2.32.56.61.9 1.39.9 2.35 0 3.37-2.05 4.1-4 4.32.32.27.6.81.6 1.63 0 1.17-.01 2.12-.01 2.41 0 .23.16.51.6.42 3.49-1.16 6-4.44 6-8.31C21 7.42 17.08 3.5 12.25 3.5z"/>
		</g>
	</g>
</svg>
